<svg xmlns="http://www.w3.org/2000/svg" width="40" height="39.619" viewBox="0 0 40 39.619">
  <g id="Grupo_680" data-name="Grupo 680" transform="translate(-1323.146 -1089.531)">
    <ellipse id="Elipse_29" data-name="Elipse 29" cx="20" cy="19.81" rx="20" ry="19.81" transform="translate(1323.146 1089.531)" fill="#34495e"/>
    <g id="Grupo_678" data-name="Grupo 678" transform="translate(1332.837 1101)">
      <path id="Trazado_815" data-name="Trazado 815" d="M20.451,1.749,15.118,7.181a.1.1,0,0,0,0,.139L18.85,11.3a.643.643,0,0,1,0,.909l0,0a.646.646,0,0,1-.912,0l-3.713-3.96a.1.1,0,0,0-.141,0l0,0-.907.922a3.993,3.993,0,0,1-2.845,1.2,4.07,4.07,0,0,1-2.9-1.234l-.872-.887a.1.1,0,0,0-.141,0l0,0L2.686,12.2a.645.645,0,0,1-.915-.909l0,0L5.506,7.318a.105.105,0,0,0,0-.139L.169,1.749a.1.1,0,0,0-.141,0A.1.1,0,0,0,0,1.818v10.87a1.591,1.591,0,0,0,1.586,1.586H19.033a1.591,1.591,0,0,0,1.586-1.586V1.819a.1.1,0,0,0-.1-.1A.105.105,0,0,0,20.451,1.749Z" fill="#fff"/>
      <path id="Trazado_816" data-name="Trazado 816" d="M10.31,9.075a2.7,2.7,0,0,0,1.938-.813L20.024.347A1.558,1.558,0,0,0,19.043,0H1.581A1.55,1.55,0,0,0,.6.347L8.374,8.263A2.7,2.7,0,0,0,10.31,9.075Z" fill="#fff"/>
    </g>
  </g>
</svg>
